<svg width="61" height="59" viewBox="0 0 61 59" fill="none" xmlns="http://www.w3.org/2000/svg">
    <ellipse cx="30.1" cy="29.025" rx="30.1" ry="29.025" fill="#01AA85"/>
    <path d="M36.8174 27.5839C37.1917 27.5839 37.5506 27.7325 37.8152 27.9972C38.0799 28.2618 38.2286 28.6208 38.2286 28.995V29.1714C38.2286 31.0788 37.5567 32.9252 36.3309 34.3865C35.1051 35.8478 33.4037 36.8305 31.5255 37.1622V40.2845C31.5255 40.6587 31.3768 41.0177 31.1121 41.2823C30.8475 41.547 30.4886 41.6957 30.1143 41.6957C29.74 41.6957 29.3811 41.547 29.1164 41.2823C28.8518 41.0177 28.7031 40.6587 28.7031 40.2845V37.1622C26.8248 36.8305 25.1234 35.8478 23.8976 34.3865C22.6718 32.9252 22 31.0788 22 29.1714V28.995C22 28.6208 22.1487 28.2618 22.4133 27.9972C22.678 27.7325 23.0369 27.5839 23.4112 27.5839C23.7854 27.5839 24.1444 27.7325 24.409 27.9972C24.6737 28.2618 24.8224 28.6208 24.8224 28.995V29.1714C24.8224 30.5749 25.3799 31.921 26.3723 32.9134C27.3648 33.9058 28.7108 34.4634 30.1143 34.4634C31.5178 34.4634 32.8638 33.9058 33.8562 32.9134C34.8487 31.921 35.4062 30.5749 35.4062 29.1714V28.995C35.4062 28.6208 35.5549 28.2618 35.8195 27.9972C36.0842 27.7325 36.4431 27.5839 36.8174 27.5839ZM30.1143 17C32.0547 17 33.6422 18.5876 33.6422 20.528V29.3478C33.6422 30.2835 33.2705 31.1808 32.6089 31.8425C31.9473 32.5041 31.05 32.8758 30.1143 32.8758C29.1786 32.8758 28.2813 32.5041 27.6196 31.8425C26.958 31.1808 26.5863 30.2835 26.5863 29.3478V20.528C26.5863 18.5876 28.1739 17 30.1143 17Z" fill="white"/>
    </svg>
    