<svg width="31" height="30" viewBox="0 0 31 30" fill="none" xmlns="http://www.w3.org/2000/svg">
<ellipse cx="15.05" cy="14.5125" rx="15.05" ry="14.5125" fill="#808080"/>
<path d="M9.39064 17.5V10.5909H11.8534C12.3886 10.5909 12.8328 10.6831 13.1859 10.8675C13.5413 11.052 13.8067 11.3072 13.9821 11.6333C14.1575 11.9572 14.2452 12.3317 14.2452 12.7567C14.2452 13.1796 14.1564 13.5518 13.9787 13.8734C13.8033 14.1928 13.5379 14.4413 13.1825 14.619C12.8294 14.7966 12.3853 14.8855 11.85 14.8855H9.98439V13.9881H11.7555C12.0929 13.9881 12.3673 13.9398 12.5787 13.843C12.7923 13.7463 12.9486 13.6058 13.0476 13.4213C13.1466 13.2369 13.196 13.0154 13.196 12.7567C13.196 12.4959 13.1454 12.2698 13.0442 12.0787C12.9453 11.8875 12.789 11.7413 12.5753 11.6401C12.3639 11.5366 12.0861 11.4849 11.742 11.4849H10.4331V17.5H9.39064ZM12.8013 14.3828L14.5084 17.5H13.3209L11.6476 14.3828H12.8013ZM17.5513 18.3636V9.72728H18.1046V18.3636H17.5513ZM19.282 12.4059C19.246 12.0865 19.0976 11.8391 18.8367 11.6637C18.5758 11.486 18.2474 11.3972 17.8516 11.3972C17.5682 11.3972 17.3231 11.4422 17.1161 11.5321C16.9092 11.6199 16.7484 11.7413 16.6337 11.8965C16.5213 12.0494 16.465 12.2237 16.465 12.4194C16.465 12.5836 16.5033 12.7253 16.5797 12.8445C16.6585 12.9637 16.7608 13.0637 16.8867 13.1447C17.0149 13.2234 17.1521 13.2898 17.2983 13.3438C17.4445 13.3955 17.5851 13.4382 17.72 13.4719L18.3947 13.6474C18.6151 13.7014 18.8412 13.7744 19.0728 13.8667C19.3045 13.9589 19.5192 14.0803 19.7172 14.231C19.9151 14.3817 20.0748 14.5684 20.1962 14.791C20.3199 15.0137 20.3818 15.2802 20.3818 15.5906C20.3818 15.9819 20.2806 16.3294 20.0781 16.633C19.878 16.9366 19.5867 17.1761 19.2044 17.3516C18.8243 17.527 18.3644 17.6147 17.8246 17.6147C17.3073 17.6147 16.8597 17.5326 16.4819 17.3684C16.1041 17.2042 15.8083 16.9715 15.5947 16.6701C15.381 16.3665 15.2629 16.0066 15.2404 15.5906H16.2862C16.3065 15.8402 16.3874 16.0482 16.5291 16.2147C16.6731 16.3788 16.8564 16.5014 17.079 16.5824C17.3039 16.6611 17.5502 16.7005 17.8178 16.7005C18.1125 16.7005 18.3745 16.6544 18.6039 16.5621C18.8355 16.4677 19.0177 16.3372 19.1504 16.1708C19.2831 16.0021 19.3494 15.8053 19.3494 15.5804C19.3494 15.3758 19.291 15.2082 19.174 15.0778C19.0593 14.9473 18.903 14.8394 18.7051 14.7539C18.5094 14.6684 18.2879 14.5931 18.0405 14.5279L17.2241 14.3052C16.6708 14.1545 16.2323 13.933 15.9084 13.6406C15.5868 13.3483 15.426 12.9614 15.426 12.4801C15.426 12.082 15.5339 11.7346 15.7498 11.4377C15.9657 11.1408 16.2581 10.9103 16.627 10.7461C16.9958 10.5797 17.4119 10.4965 17.8752 10.4965C18.343 10.4965 18.7557 10.5785 19.1133 10.7427C19.4731 10.9069 19.7565 11.1329 19.9634 11.4208C20.1704 11.7064 20.2783 12.0348 20.2873 12.4059H19.282Z" fill="white"/>
</svg>
