<svg width="33" height="33" viewBox="0 0 33 33" fill="none" xmlns="http://www.w3.org/2000/svg">
    <path d="M16.3079 31.6157C24.7622 31.6157 31.6157 24.7622 31.6157 16.3079C31.6157 7.85356 24.7622 1 16.3079 1C7.85356 1 1 7.85356 1 16.3079C1 24.7622 7.85356 31.6157 16.3079 31.6157Z" stroke="#808080" stroke-width="1.33112" stroke-linecap="round" stroke-linejoin="round"/>
    <path d="M11.3617 16.4555C12.4644 16.4555 13.3583 14.8453 13.3583 12.8589C13.3583 10.8726 12.4644 9.26239 11.3617 9.26239C10.2589 9.26239 9.36499 10.8726 9.36499 12.8589C9.36499 14.8453 10.2589 16.4555 11.3617 16.4555Z" fill="black"/>
    <path d="M21.254 16.4579C22.3567 16.4579 23.2507 14.8476 23.2507 12.8613C23.2507 10.875 22.3567 9.26477 21.254 9.26477C20.1513 9.26477 19.2573 10.875 19.2573 12.8613C19.2573 14.8476 20.1513 16.4579 21.254 16.4579Z" fill="black"/>
    <path d="M26.0216 20.0616C26.0296 21.0864 25.8328 22.1024 25.4426 23.05C17.1297 25.0667 8.51741 23.2763 7.14636 22.9635C6.77447 22.0416 6.58679 21.0557 6.59395 20.0616H6.66716C6.66716 20.0616 16.5174 22.451 25.8952 20.1082L26.0216 20.0616Z" stroke="#808080" stroke-width="1.33112" stroke-linecap="round" stroke-linejoin="round"/>
    <path d="M25.4427 23.05C24.2514 25.8919 21.2164 27.862 16.3312 27.862C11.3994 27.862 8.32452 25.8453 7.14648 22.9634C8.51754 23.2763 17.1298 25.0666 25.4427 23.05Z" stroke="#808080" stroke-width="1.33112" stroke-linecap="round" stroke-linejoin="round"/>
    </svg>
    